<?xml version="1.0" encoding="utf-8"?>
<!-- Generator: Adobe Illustrator 19.0.0, SVG Export Plug-In . SVG Version: 6.00 Build 0)  -->
<svg version="1.1" id="Layer_1" xmlns="http://www.w3.org/2000/svg" xmlns:xlink="http://www.w3.org/1999/xlink" x="0px" y="0px"
	 viewBox="-56.5 66.5 12 12" style="enable-background:new -56.5 66.5 12 12;" xml:space="preserve">
<style type="text/css">
	.st0{opacity:0.3;fill:#414242;}
</style>
<path id="XMLID_32_" class="st0" d="M-48.4,72.5l3.2-3.2c0.6-0.6,0.6-1.5,0-2.1c-0.6-0.6-1.5-0.6-2.1,0l-3.2,3.2l-3.2-3.2
	c-0.6-0.6-1.5-0.6-2.1,0c-0.6,0.6-0.6,1.5,0,2.1l3.2,3.2l-3.2,3.2c-0.6,0.6-0.6,1.5,0,2.1c0.6,0.6,1.5,0.6,2.1,0l3.2-3.2l3.2,3.2
	c0.6,0.6,1.5,0.6,2.1,0c0.6-0.6,0.6-1.5,0-2.1L-48.4,72.5z"/>
</svg>
