<?xml version="1.0" encoding="utf-8"?>
<!-- Generator: Adobe Illustrator 19.0.0, SVG Export Plug-In . SVG Version: 6.00 Build 0)  -->
<svg version="1.1" id="Layer_1" xmlns="http://www.w3.org/2000/svg" xmlns:xlink="http://www.w3.org/1999/xlink" x="0px" y="0px"
	 viewBox="-61 62 21 21" style="enable-background:new -61 62 21 21;" xml:space="preserve">
<style type="text/css">
	.st0{fill:#FFFFFF;}
</style>
<g id="XMLID_26_">
	<path id="XMLID_25_" class="st0" d="M-42.5,80h-16c-0.8,0-1.5-0.7-1.5-1.5l0,0c0-0.8,0.7-1.5,1.5-1.5h16c0.8,0,1.5,0.7,1.5,1.5l0,0
		C-41,79.3-41.7,80-42.5,80z"/>
	<path id="XMLID_27_" class="st0" d="M-45,75h-11c-0.8,0-1.5-0.7-1.5-1.5l0,0c0-0.8,0.7-1.5,1.5-1.5h11c0.8,0,1.5,0.7,1.5,1.5l0,0
		C-43.5,74.3-44.2,75-45,75z"/>
	<path id="XMLID_28_" class="st0" d="M-48.5,70h-4c-0.8,0-1.5-0.7-1.5-1.5l0,0c0-0.8,0.7-1.5,1.5-1.5h4c0.8,0,1.5,0.7,1.5,1.5l0,0
		C-47,69.3-47.7,70-48.5,70z"/>
</g>
</svg>
