<?xml version="1.0" encoding="utf-8"?>
<!-- Generator: Adobe Illustrator 19.0.0, SVG Export Plug-In . SVG Version: 6.00 Build 0)  -->
<svg version="1.1" id="Layer_1" xmlns="http://www.w3.org/2000/svg" xmlns:xlink="http://www.w3.org/1999/xlink" x="0px" y="0px"
	 viewBox="0 0 150 55" style="enable-background:new 0 0 150 55;" xml:space="preserve">
<style type="text/css">
	.st0{fill:#FEC106;}
	.st1{fill:#231F20;}
	.st2{fill:none;stroke:#231F20;stroke-width:2;stroke-miterlimit:10;}
</style>
<g>
	<path class="st0" d="M150,8V5c-2.8,0-5-2.2-5-5H5c0,2.8-2.2,5-5,5v3c1.1,0,2,0.9,2,2s-0.9,2-2,2v3c1.1,0,2,0.9,2,2s-0.9,2-2,2v3
		c1.1,0,2,0.9,2,2s-0.9,2-2,2v3c1.1,0,2,0.9,2,2s-0.9,2-2,2v3c1.1,0,2,0.9,2,2s-0.9,2-2,2v3c1.1,0,2,0.9,2,2s-0.9,2-2,2v3
		c2.8,0,5,2.2,5,5h140c0-2.8,2.2-5,5-5v-3c-1.1,0-2-0.9-2-2s0.9-2,2-2v-3c-1.1,0-2-0.9-2-2s0.9-2,2-2v-3c-1.1,0-2-0.9-2-2s0.9-2,2-2
		v-3c-1.1,0-2-0.9-2-2s0.9-2,2-2v-3c-1.1,0-2-0.9-2-2s0.9-2,2-2v-3c-1.1,0-2-0.9-2-2S148.9,8,150,8z"/>
	<g>
		<path class="st1" d="M140.3,6.9v41.2H9.7V6.9H140.3 M142.3,4.9H7.7v45.2h134.7V4.9L142.3,4.9z"/>
	</g>
	<line class="st2" x1="22.7" y1="4.9" x2="22.7" y2="49.2"/>
	<line class="st2" x1="127.3" y1="5.6" x2="127.3" y2="49.9"/>
	<g>
		<path d="M18.9,19.7h-1.4l-5-1v-1.6l5.2,1.1v-1.6h1.1V19.7z"/>
		<path d="M18.9,23h-1.4l-5-1v-1.6l5.2,1.1V20h1.1V23z"/>
		<path d="M16.1,26.4c-0.1,0.2-0.2,0.4-0.4,0.5c-0.2,0.1-0.6,0.2-1.3,0.2c-0.5,0-0.9-0.1-1.2-0.2c-0.3-0.1-0.5-0.3-0.6-0.6
			c-0.1-0.3-0.2-0.6-0.2-1.1c0-0.5,0.1-0.9,0.3-1.2s0.4-0.5,0.6-0.6c0.2-0.1,0.7-0.1,1.3-0.1H15V25h-1c-0.3,0-0.4,0-0.5,0
			c-0.1,0-0.1,0.1-0.1,0.2c0,0.1,0,0.2,0.1,0.2s0.3,0.1,0.7,0.1h0.4c0.2,0,0.4,0,0.5-0.1s0.2-0.1,0.2-0.2c0-0.1,0.1-0.3,0.1-0.6h0.9
			c0,0.4,0,0.6,0,0.7c0,0.1,0.1,0.2,0.2,0.2s0.2,0.1,0.5,0.1h0.4c0.2,0,0.4,0,0.4-0.1c0.1,0,0.1-0.1,0.1-0.2c0-0.1,0-0.2-0.1-0.2
			c-0.1,0-0.2-0.1-0.5-0.1h-0.5v-1.6h0.5c0.6,0,1,0.1,1.2,0.4c0.2,0.3,0.3,0.7,0.3,1.3c0,0.8-0.1,1.3-0.4,1.5
			c-0.3,0.3-0.7,0.4-1.2,0.4c-0.4,0-0.6,0-0.8-0.1C16.4,26.9,16.2,26.7,16.1,26.4z"/>
		<path d="M18.9,31h-4.2v0.5h-1.1V31h-1.1v-1.6h1.1v-1.9h1.1l4.2,1.4V31z M14.7,29.4h2.7l-2.7-0.7V29.4z"/>
		<path d="M18.9,34.4h-1.4l-5-1v-1.6l5.2,1.1v-1.6h1.1V34.4z"/>
		<path d="M13.6,38.2h-1.1v-3.5l0.9,0c1.7,1,2.7,1.6,3.1,1.8c0.4,0.2,0.7,0.3,0.9,0.3c0.2,0,0.3,0,0.4-0.1c0.1-0.1,0.1-0.1,0.1-0.3
			c0-0.1,0-0.2-0.1-0.3c-0.1-0.1-0.3-0.1-0.6-0.1h-0.6v-1.4h0.2c0.4,0,0.6,0,0.8,0.1c0.2,0,0.4,0.1,0.6,0.3s0.3,0.3,0.5,0.6
			c0.1,0.2,0.2,0.5,0.2,0.8c0,0.6-0.2,1.1-0.5,1.4c-0.3,0.3-0.7,0.5-1.2,0.5c-0.4,0-0.7-0.1-1.2-0.3c-0.4-0.2-1.3-0.7-2.6-1.6V38.2z
			"/>
	</g>
	<g>
		<path d="M137.4,19.7H136l-5-1v-1.6l5.2,1.1v-1.6h1.1V19.7z"/>
		<path d="M137.4,23H136l-5-1v-1.6l5.2,1.1V20h1.1V23z"/>
		<path d="M134.7,26.4c-0.1,0.2-0.2,0.4-0.4,0.5c-0.2,0.1-0.6,0.2-1.3,0.2c-0.5,0-0.9-0.1-1.2-0.2s-0.5-0.3-0.6-0.6
			c-0.1-0.3-0.2-0.6-0.2-1.1c0-0.5,0.1-0.9,0.3-1.2s0.4-0.5,0.6-0.6c0.2-0.1,0.7-0.1,1.3-0.1h0.5V25h-1c-0.3,0-0.4,0-0.5,0
			c-0.1,0-0.1,0.1-0.1,0.2c0,0.1,0,0.2,0.1,0.2s0.3,0.1,0.7,0.1h0.4c0.2,0,0.4,0,0.5-0.1s0.2-0.1,0.2-0.2c0-0.1,0.1-0.3,0.1-0.6h0.9
			c0,0.4,0,0.6,0,0.7c0,0.1,0.1,0.2,0.2,0.2c0.1,0,0.2,0.1,0.5,0.1h0.4c0.2,0,0.4,0,0.4-0.1s0.1-0.1,0.1-0.2c0-0.1,0-0.2-0.1-0.2
			c-0.1,0-0.2-0.1-0.5-0.1h-0.5v-1.6h0.5c0.6,0,1,0.1,1.2,0.4s0.3,0.7,0.3,1.3c0,0.8-0.1,1.3-0.4,1.5c-0.3,0.3-0.7,0.4-1.2,0.4
			c-0.4,0-0.6,0-0.8-0.1C134.9,26.9,134.8,26.7,134.7,26.4z"/>
		<path d="M137.4,31h-4.2v0.5h-1.1V31h-1.1v-1.6h1.1v-1.9h1.1l4.2,1.4V31z M133.3,29.4h2.7l-2.7-0.7V29.4z"/>
		<path d="M137.4,34.4H136l-5-1v-1.6l5.2,1.1v-1.6h1.1V34.4z"/>
		<path d="M132.1,38.2h-1.1v-3.5l0.9,0c1.7,1,2.7,1.6,3.1,1.8s0.7,0.3,0.9,0.3c0.2,0,0.3,0,0.4-0.1c0.1-0.1,0.1-0.1,0.1-0.3
			c0-0.1,0-0.2-0.1-0.3c-0.1-0.1-0.3-0.1-0.6-0.1h-0.6v-1.4h0.2c0.4,0,0.6,0,0.8,0.1c0.2,0,0.4,0.1,0.6,0.3s0.3,0.3,0.5,0.6
			c0.1,0.2,0.2,0.5,0.2,0.8c0,0.6-0.2,1.1-0.5,1.4c-0.3,0.3-0.7,0.5-1.2,0.5c-0.4,0-0.7-0.1-1.2-0.3s-1.3-0.7-2.6-1.6V38.2z"/>
	</g>
</g>
</svg>
