<svg version="1.1" id="Layer_1" xmlns="http://www.w3.org/2000/svg" xmlns:xlink="http://www.w3.org/1999/xlink" x="0px" y="0px"
	 viewBox="0 0 40 40" style="enable-background:new 0 0 40 40;" xml:space="preserve">
<style type="text/css">
	.st0{fill:#344E5C;}
	.st1{fill:#D25248;}
	.st2{fill:#E7E7E7;}
</style>
<circle id="XMLID_11_" class="st0" cx="20" cy="20" r="20"/>
<path id="XMLID_7_" class="st1" d="M16.8,13c0-0.1-0.1-0.2-0.2-0.3c-1.3,1.7-3.2,3.3-5.5,4.5c-2.3,1.2-4.6,1.8-6.8,1.9
	c0,0.1,0.1,0.2,0.1,0.3c3.7,7,8,12,12.8,9.5c1.5-0.8,2.4-2,2.7-3.5c0.2-0.7-0.9-2.3-1-3.1c0-0.4,1.1,0.1,1-0.4
	c-0.2-1.1-0.4-2.2-0.8-3.4c-0.2-0.6-0.7,3.8-2.4-0.1c-0.3-0.6,1.4-2.3,1.3-2.6C17.8,15,17.3,14,16.8,13z M11.1,22.6
	c-0.9,0.5-2,0-2.7-1c0.6,0,1.3-0.1,2-0.5c0.7-0.3,1.2-0.8,1.5-1.4C12.3,20.9,12,22.1,11.1,22.6z M16,25.3c-1,0.5-1.6,1.4-2.2,2.1
	c-0.4-1.3,0-2.9,1.3-3.6c1.3-0.7,2.9-0.1,3.9,0.9C18.2,24.8,17,24.8,16,25.3z"/>
<path id="XMLID_2_" class="st2" d="M34,9.6c-2.8,1.3-6.2,2.1-9.9,2.1s-7.1-0.7-9.9-2.1c0,0.2,0,0.3,0,0.5c0,11.3,2.3,20.5,9.9,20.5
	c7.5,0,9.9-9.2,9.9-20.5C34,9.9,34,9.8,34,9.6z M17.4,18.1c0.3-1.2,1.5-2,2.9-1.9s2.3,1.1,2.5,2.4c-0.7-0.4-1.6-0.7-2.6-0.8
	C19.1,17.8,18.2,17.9,17.4,18.1z M24.4,25.9c-2.4,0-4.2-1.6-4.7-3.1c1.3,0.4,2.9,1.1,4.7,1.1s3.4-0.5,4.7-0.9
	C28.7,24.5,26.8,25.9,24.4,25.9z M29.2,18.3c-1-0.1-1.9,0-2.7,0.3c0.3-1.2,1.5-2,2.9-1.9c1.3,0.1,2.3,1.1,2.5,2.4
	C31.1,18.7,30.2,18.4,29.2,18.3z"/>
</svg>
