<?xml version="1.0" encoding="utf-8"?>
<!-- Generator: Adobe Illustrator 19.0.0, SVG Export Plug-In . SVG Version: 6.00 Build 0)  -->
<svg version="1.1" id="Layer_1" xmlns="http://www.w3.org/2000/svg" xmlns:xlink="http://www.w3.org/1999/xlink" x="0px" y="0px"
	 viewBox="-61 62 21 21" style="enable-background:new -61 62 21 21;" xml:space="preserve">
<style type="text/css">
	.st0{fill:#FFFFFF;}
</style>
<path id="XMLID_21_" class="st0" d="M-41.6,81.4L-41.6,81.4c-0.8,0.8-2,0.8-2.8,0l-4.9-4.9c-0.8-0.8-0.8-2,0-2.8h0
	c0.8-0.8,2-0.8,2.8,0l4.9,4.9C-40.8,79.4-40.8,80.6-41.6,81.4z"/>
<g id="XMLID_23_">
	<path class="st0" d="M-52.8,66.2c2.5,0,4.5,2,4.5,4.5c0,2.5-2,4.5-4.5,4.5c-2.5,0-4.5-2-4.5-4.5C-57.3,68.2-55.3,66.2-52.8,66.2
		 M-52.8,63.2c-4.1,0-7.5,3.4-7.5,7.5c0,4.1,3.4,7.5,7.5,7.5s7.5-3.4,7.5-7.5C-45.3,66.5-48.7,63.2-52.8,63.2L-52.8,63.2z"/>
</g>
</svg>
