<?xml version="1.0" standalone="no"?>
<!DOCTYPE svg PUBLIC "-//W3C//DTD SVG 1.1//EN" "http://www.w3.org/Graphics/SVG/1.1/DTD/svg11.dtd">
<svg xmlns="http://www.w3.org/2000/svg">
<metadata>Generated by Fontastic.me</metadata>
<defs>
<font id="untitled-font-2" horiz-adv-x="512">
<font-face font-family="untitled-font-2" units-per-em="512" ascent="480" descent="-32"/>
<missing-glyph horiz-adv-x="512" />

<glyph unicode="&#57344;" d="M238 258c-43 8-76 45-76 88 0 33 19 62 47 78 9-18 27-37 52-51 33-18 67-22 90-14 1-4 1-8 1-13 0-43-32-80-76-88 61 9 108 58 108 119 0 66-57 120-127 120-70 0-126-54-126-120 0-61 46-110 107-119z m115-32l-16 0c0-41-36-75-80-75-43 0-79 34-79 75l-16 0c-52 0-95-40-95-90l0-91c0-16 14-30 32-30l316 0c18 0 32 14 32 30l0 91c0 50-42 90-94 90z"/>
<glyph unicode="&#57345;" d="M498 141c0-10-3-19-7-28l-153 163 151 125c6-9 9-19 9-30z m-241 105l210 175c-9 5-18 7-29 7l-361 0c-11 0-21-3-29-7z m59 11l-49-40c-3-3-6-4-10-4-3 0-7 1-10 4l-48 40-154-164c9-6 20-9 31-9l362 0c12 0 23 3 32 9z m-290 144c-6-9-10-19-10-30l0-230c0-10 3-19 8-28l152 163z"/>
<glyph unicode="&#57346;" d="M255 490c-1 0-2 0-2 0-1 0-2 0-3 0-71 0-149-47-159-145l0-20c0-1 0-9 0-12 6-47 43-96 71-143 29-50 60-99 91-148 30 49 61 98 91 148 28 47 65 96 70 143 1 4 1 11 1 12l0 20c-11 98-89 145-160 145z m54-178c-12-28-35-39-55-39-1 0-1 0-1 0 0 0-1 0-1 0-21 0-44 11-55 39-2 5-1 14-1 15l0 13c0 36 30 53 57 53 27 0 58-17 58-53l0-13c-1-1 0-10-2-15z"/>
<glyph unicode="&#57347;" d="M422 404c-45 34-105 53-169 53-64 0-124-19-170-53-45-34-70-79-70-128 0-29 9-58 27-84 17-24 40-45 69-61-1-8-9-34-47-64-2-2-3-5-2-7 1-2 3-4 6-4 0 0 5-1 15-1 28 0 86 5 156 40 5 0 11 0 16 0 64 0 124 19 169 52 46 35 71 80 71 129 1 49-25 94-71 128z"/>
<glyph unicode="&#57348;" d="M491 478c-3 3-7 4-12 2l-448-172c-10-4-17-13-19-24-1-11 4-22 13-29l98-71 350 275-309-305 134-98c8-6 20-8 30-5 10 3 18 10 22 20l144 395c1 5 0 9-3 12z m-390-323l19-105c1-7 6-14 14-17 7-3 15-3 22 2 27 17 61 40 60 41l-116 83z"/>
<glyph unicode="&#57349;" d="M233 356c-4 4-9 6-15 6-12 0-22-10-22-22 0-7 2-13 7-17l72-66-72-67c-5-4-7-10-7-16 0-13 10-23 22-23 6 0 11 3 15 6l91 83c4 4 7 10 7 17 0 6-2 12-7 16z m23 142c-133 0-241-108-241-241 0-133 108-241 241-241 133 0 241 108 241 241 0 133-108 241-241 241z m0-437c-108 0-196 88-196 196 0 108 88 196 196 196 108 0 196-88 196-196 0-108-88-196-196-196z"/>
<glyph unicode="&#57350;" d="M356 279c3 4 5 9 5 15 0 12-10 22-22 22-7 0-13-2-17-7l-66-72-66 72c-4 5-10 7-17 7-12 0-22-10-22-22 0-6 2-11 5-15l83-91c5-4 11-7 17-7 6 0 12 2 17 7z m141-23c0 133-108 241-241 241-133 0-241-108-241-241 0-133 108-241 241-241 133 0 241 108 241 241z m-437 0c0 108 88 196 196 196 108 0 196-88 196-196 0-108-88-196-196-196-108 0-196 88-196 196z"/>
<glyph unicode="&#57351;" d="M279 156c4-3 9-5 15-5 12 0 22 10 22 22 0 7-2 13-7 17l-72 66 72 66c5 4 7 10 7 17 0 12-10 22-22 22-6 0-11-2-15-5l-91-83c-5-5-8-11-8-17 0-6 3-12 8-17z m-23-141c133 0 241 108 241 241 0 133-108 241-241 241-133 0-241-108-241-241 0-133 108-241 241-241z m0 437c108 0 196-88 196-196 0-108-88-196-196-196-108 0-196 88-196 196 0 108 88 196 196 196z"/>
<glyph unicode="&#57352;" d="M156 233c-3-4-5-9-5-15 0-12 10-22 22-22 7 0 13 2 17 7l66 72 66-72c4-5 10-7 17-7 12 0 22 10 22 22 0 6-2 11-5 15l-83 91c-5 4-11 7-17 7-6 0-12-2-17-7z m-141 23c0-133 108-241 241-241 133 0 241 108 241 241 0 133-108 241-241 241-133 0-241-108-241-241z m437 0c0-108-88-196-196-196-108 0-196 88-196 196 0 108 88 196 196 196 108 0 196-88 196-196z"/>
<glyph unicode="&#57353;" d="M218 335c0-27 0-55 0-82 0-28 0-57 0-85 1-5 4-13 9-14 4-2 13-1 17 3 30 27 60 56 89 84 7 7 7 16 0 23-29 28-59 55-88 83-5 5-11 8-18 4-7-3-9-9-9-16z m-206-82c0-134 109-244 244-244 135 0 244 109 244 244 0 135-110 244-244 244-134 0-244-110-244-244z m438 0c0-107-87-194-194-194-107 0-194 87-194 194 0 107 87 194 194 194 107 0 194-87 194-194z"/>
<glyph unicode="&#57354;" d="M256 497c-133 0-241-108-241-241 0-132 108-240 241-240 133 0 241 108 241 240 0 133-108 241-241 241z m0-451c-116 0-210 94-210 210 0 116 94 210 210 210 116 0 210-94 210-210 0-116-94-210-210-210z m58 291l-58-58-58 58-23-23 58-58-58-57 23-23 58 57 58-57 23 23-58 57 58 58z"/>
<glyph unicode="&#57355;" d="M256 496c-133 0-240-107-240-240 0-133 107-240 240-240 133 0 240 107 240 240 0 133-107 240-240 240z m31-319c-18 0-36 10-42 22 0 0-10-41-12-48-8-28-30-55-32-57-1-2-4-1-4 1 0 4-6 38 1 66 3 14 22 95 22 95 0 0-6 11-6 27 0 26 15 45 34 45 16 0 23-11 23-26 0-16-10-39-15-61-4-19 9-34 27-34 33 0 56 42 56 93 0 38-26 66-73 66-52 0-86-39-86-83 0-15 5-26 12-34 3-4 4-6 3-10-1-3-3-11-4-14-1-5-5-6-9-5-24 10-35 37-35 67 0 49 41 109 124 109 67 0 110-48 110-100 0-68-37-119-94-119z"/>
<glyph unicode="&#57356;" d="M256 496c-133 0-240-107-240-240 0-133 107-240 240-240 133 0 240 107 240 240 0 133-107 240-240 240z m121-199c3-78-55-165-159-165-31 0-60 9-85 25 30-4 59 4 82 23-24 0-45 16-52 38 9-1 18-1 25 1-26 6-45 30-44 56 7-4 16-7 25-7-25 16-32 49-17 74 27-34 68-56 115-58-8 35 18 69 54 69 16 0 30-7 41-18 13 2 24 7 35 13-4-13-13-24-25-30 12 1 22 4 32 8-7-11-16-21-27-29z"/>
<glyph unicode="&#57357;" d="M256 497c-133 0-241-108-241-241 0-133 108-241 241-241 133 0 241 108 241 241 0 133-108 241-241 241z m71-142c0 0-24 0-33 0-12 0-15-5-15-17 0-10 0-30 0-30l48 0-4-52-44 0 0-156-62 0 0 156-32 0 0 52 32 0c0 0 0 8 0 42 0 39 21 60 67 60 8 0 43 0 43 0z"/>
<glyph unicode="&#57358;" d="M496 414c-18-8-36-13-56-16 20 13 35 32 43 55-19-11-40-20-63-24-18 19-43 31-72 31-54 0-98-44-98-98 0-8 0-16 2-23-82 4-154 43-203 103-8-14-13-31-13-49 0-35 17-65 44-82-17 0-32 5-45 12l0-1c0-48 34-88 79-97-8-2-17-3-26-3-6 0-12 0-18 2 12-39 49-68 92-69-34-26-76-42-123-42-8 0-15 1-23 2 43-28 95-45 151-45 181 0 280 150 280 281l0 13c19 13 36 30 49 50z"/>
<glyph unicode="&#57359;" d="M112 115c-10 0-18 8-18 19l0 147-79 0 107 117 108-117-79 0 0-109 85 0 55-57z m385 119l-79 0 0 147c0 10-8 19-18 19l-179 0 56-57 84 0 0-109-79 0 108-117z"/>
<glyph unicode="&#57360;" d="M475 328l-132 13c-8 1-16 6-19 14l-47 115c-8 19-35 19-42 0l-47-115c-3-8-11-13-19-14l-133-13c-19-1-27-26-12-39l99-88c7-5 9-14 7-22l-30-123c-4-19 17-35 34-25l110 65c8 4 16 4 24 0l110-65c17-10 38 5 34 25l-30 123c-2 8 1 17 7 22l100 88c14 13 6 38-14 39z"/>
<glyph unicode="&#57361;" d="M483 277c-29 72-107 108-235 108l-61 0 0 69c0 5-2 9-5 12-3 4-7 5-12 5-5 0-9-1-12-5l-138-138c-3-3-5-7-5-12 0-4 2-8 5-12l138-138c3-3 7-5 12-5 4 0 8 2 12 5 3 4 5 8 5 12l0 69 60 0c18 0 34 0 48-1 13-1 27-3 41-6 14-3 26-7 36-12 10-5 20-11 28-18 9-8 16-17 22-27 6-11 10-24 13-38 3-14 5-31 5-48 0-10-1-21-2-34 0-1 0-3 0-6-1-3-1-6-1-7 0-3 1-5 2-7 2-2 4-3 6-3 3 0 6 2 8 5 1 2 2 4 3 6 1 2 3 5 4 8 1 3 2 5 3 7 23 51 34 91 34 121 0 36-4 66-14 90z"/>
<glyph unicode="&#57362;" d="M278 330c0 0 1 2 1 2 0 0 0-1 1-1 0 0 0 1 0 1 1 0 1-1 2-1 0 0 1 1 1 1 0 0 0-1 1 0 0 0 0 0 0 0 1 0 1 0 1 0 1 0 1 0 1 0 0 0 0 0 0 0 0-1-1-2-1-2 0-1 1-1 1-1-1-2-1-2-1-2-1 0-1 0-1 0-1 1-1 1-1 1 0 0-1 0-1 0-1 1-2 2-3 2 0 0-1 0-1 0 1 0 0 0 0 0z m-41 59c0 0 0 0 0 0-1 0-1 0 0 0 0 0 0 0 0 0 0 0 0 0 0 0 1 1 1 1 1 1 0 0 0 0 0 0 0 0 1 0 1 0 0 0 0 0 0 0 0-1 0-1-1-1 0-1 0-1 0-1-1 0-1 0 0 0 0-1 0-1 0-1 0 0 0 0 1 0 0 0 0 0 0 0 1 0 1-1 1-1 0-1 0-1-1-2 0-1-1-1-2-1 0 0 0 0 0 0 0 0 0 0 0 0 0 0 0 0 0 0 0-1 0 0-1-1 0 0 0 0 0 0 0 0 0 0 1 0 0 0 0 0 0 0 1 0 1-1 0-1 0 0-1-1-2-1 0 0 0 0 0 0 0 0-1-1 0-1 1 0 1 0 2 0 0 0 1 0 1-1 1 0 1 0 1 0 0 0 0 0 0 0 0 1 0 1 1 1 0 0 0 0 0-1 0 0 0 0 0 0-1 0-1 0-2 0 0 0 0 0-1 0-1 0-1-1-2-2-1 0-1 0-1 0 0 0 0-1 0-1 0 0 0 0 0 0 0 0 1 0 1 0 0 1 1 1 1 0 0 0 1 0 1 0 0 1 0 1 1 1 1 0 1 0 2 0 1 0 1 1 2 0 0 0 1 0 1 0 0 0 0 0 1 0 1 0 1 0 2-1 0 0 1 1 1 1 0 0 2 0 2 1-1 0-1 1-1 1 0 0 0 0 0 0 0 0 0 0 0 0 0 0 1 1 1 1 1 0 1 0 1 1 0 0 0 1-1 1 0 0-2 1-2 1 0 0 0 0-1 0 0 0 0 0 0 0 1 1 1 1 1 1 0 0-1 1-1 1 0 0 0 1 0 1 0 0 0 2 0 2 0 0 0 0-1 0 0 0 0 0-1 0 0 0 0 0 0 0 0 0 0 0 0 1 0 0 0 0 0 1 0 0 0 0 0 1-1 1-1 2 0 3 0 1 0 1 1 1 1 2-3 1-3 1 0 0 0 0 0 1 0 0 0 0 0 0 0 1 1 1 1 1 1 0 0 1 0 1-1-1-1-1-2-1 0 0 0 0-1 0 0 0 0-1 0-1-1 0-1-1-1-2-1 0-1 0-1 0 0 0 0 0 0 0 0 0 0 0-1 0 0 0 0-1 0-1 0 0 1 0 1 0 0 0 0 0 0 0 0 0 0 0 0-1-1 1-1 1-1 1 0 0 0-1 0-2 0 0 0 0 0 0 0 0 0-1 0-2z m260-133c0-133-108-241-241-241-133 0-241 108-241 241 0 133 108 241 241 241 133 0 241-108 241-241z m-170 104c0 0 1 0 1 1 0 0 0 1 0 1 0 0 0 0-1 0 0 0 0-1-1-1 0 0 0 1 0 1 0 0 0 0 0 0 0 0 0 1 0 1 0 0 0 0 0 0-1 0-1 0-2 0-1 0-2 0-2 0-1-1-1-1-1-1-1-1-1-2-1-2-1-1-1-1-1-2 0-1-1-1-1-1 0 0 0-2 0-2 0-1 0-1 0-2 0 0-1 0-1-1 0-1 0-2 0-2 0 0 0-1 0-1 0 0 0 0 0 0 0 1-1 1-1 0 0 0 0 0 0 0l1-1c1-1 2-2 4-3 1 0 2 0 2 0 1 0 2 0 3 0 0 0 1 0 1 0 0 1 0 1 0 1 0 0 0 0 1 1 1 0 2 1 3 1 1 1 2 0 4 1 0 0 4-2 4-2 1 0 5 0 5-1 1 0 1 0 2 0 0 0 1 1 1 1 2-1 6 0 5 3-1 2-3 3-4 4-2 0-4 2-6 4 0 0-2 0-3 0-2 1-2 1-2 2 0 0 0 0 0 0 1 1 1 1 2 2 0 1 0 1-1 1 0 1-1 0-1 1 0 1 1 1 2 2 0 0 0 0 0 0 0 1 0 1 0 1-1 0-2-1-3-1 0 0 0 0 0 0l-4-2c-1-1-1-2-1-3 0 0 1-1 1-2 1 0 1 0 1 0 0 0-3-2-3-2 0 0-1 0-1 0 0 1-1 2-2 2 0 0 0 0 0 1z m122-104c0 20-3 40-7 51-1 3-3 6-7 7-3 2-7 1-10 0-7-5-7-5-10-5-1 0-7-4-9 0 0 1-2 5-5 0-1-2-4-1-6 0-4 2-9 7-10 9-1 1-5-1-2-5 9-14 11-15 14-16 1 1 1 1 2 2 1 0 2 1 3 2 0 1 1 1 2 2 2 0 3 0 4-1 1-2 3 0 5-1 4-2 3-7 2-11-1 0-1-1-1-1 0-2 1-3 1-5 0 0 0 0 0 0-1 0-1-1-2-1-1-1-1-3-2-5-1-1 0-4-3-4-1 0-4-2-4-4-1-3-2-5-4-7-2-1-3-2-6-4-2-1-7-7-11-8-1 0-1 0-2 0-2 5-3 10-5 15-3 6-10 7-12 13-2 6-3 8-5 9-2 1-3 3-4 4-2 3-5 6-7 9-1 1-1 2-2 3 0 0-1 0-1 0 0-2 1-3 0-3 0-1-1-1-1 0-2 1-4 4-5 6 0-1 0-2 0-2 4-5 19-27 20-30 2-14 13-18 19-23 1-1 2-2 2-3 0-2 1-3 2-4 1-1 2-1 8 0 1 0 1 1 2 2 1 0 6 2 6 2 2 1 0 1 3 2 1 1 2 4 2 0 0-1 1-2 1-3-1-6-1-7-2-8 0-2-1-3-1-5-2-7-5-15-10-21 0 0 0 0 0 0-3-3-8-8-12-16-3-5-7-9-9-14-1-2-1-2-1-5 1-1 3-9 3-18 0-11-1-13-5-15-5-4-9-6-11-8-3-3-5-6-5-9 0-2-1-4-2-6 1 0-6-3-9-7 0 0 0 0 0 0 2-5-19-20-24-20-3 0-11-1-14-3-3-1-10 1-10 3 0 0 0 0 0 1 1 1-4 9-5 10-1 0-3 4-3 5-2 3 1 7-1 10 0 0 0 0 0 0l-7 10c-1 1-4 3-4 4 0 2 3 11 4 12 0 0 0 1 0 2 1 0 1 0 2 0 1 1 4 3 1 8 0 0 0-1-1 5-1 4-6 13-7 14 0 0-6 3-9 9 0 0 0 1 1 1 2 2 2 4 2 10 0 0 0 1 1 1l0 0c0 1 0 3-1 5-1 1-1 1-2 1 0 0-1 0-1 1-1 0-3 0-4 0-3-1-9-2-9 2-1 5-5 6-7 6-7-1-13-7-21-6 0 0-1 0-1 0-6 2-13 2-20 4-2 0-6 1-7 3l-10 9c0 0-1 1-1 2-3 5-4 15-5 16 0 1 0 1 0 1l-1 2c-2 3-3 6-2 10l4 12c0 0 0 0 0 0 0 1 0 1 0 2 1 6 0 8-1 9 0 3 0 3 5 10 9 14 11 14 13 15 4 0 12 5 12 8 0 0 0 2 1 5 1 1 2 1 3 2l8 7c2 1 4 1 6 0 1 1 3 1 4 0 1-1 2 0 2 0 6 3 11 3 38 5 1 0 2 0 2-1 2-2 1-2 2-5 1-1 0-2-2-4-1-1-1-2 0-2 0 0 2-1 3-1 2-1 5-2 8-3 2-1 4-2 5-4 2-1 15-9 14 2 0 1 1 2 2 3 4 3 7-1 8-1 2-1 2-1 4-1 1 0 1-1 5-1 6 1 13 0 19 1 1 0 2 0 3 0 7 6 0 13 1 20-3 0-5-1-6-3-1 0-1 0-2-1-2 0-3 1-5 2-1 0-2 0-2-1-1-1-8 0-10 3 0 1-1 2-2 3 2 1-1 3-2 4 0 1 1 2 1 2 2 1 3 2 2 2 0-1-1-1-2-1 0 0-1 0-1 0-1 1-2 1-3 1-2 0-3-1-4-2 0 0 0-1 0-1 0 0-1 0-1 0 0 1 0 0-1 0 0 0 0 0 0-1 0-1 3-2 1-3 0 0-1-1-2-1-1 0-2 1-3 1 0 0 0 0-1 0 0 0 0 0 0 0 0 0-1 1-1 1-1 1-1 1-1 1 0 0 0 1-1 1 0 0 0 1 0 1 0 1 0 1-1 2 0 2-1 3-2 4 0 0-1 1-1 1 0 0-1 0-1 0-1 1-2 1-2 1l-8 6c-1 0-1 0-2 0 0 0-1 1-1 1 0 1-1 1-3 1 0 0 0-1 0-1 0-1 0-1 0-1l5-8c1-1 2-1 4-1 0 0 1-1 1-1 0-1 0-1 0-1 3-1 6-2 7-4 0-1 0-1 0-1 0-1-1-1-1-1 0 0 0 1 0 1 0 0 0 0 0 0 0 1-1 1-1 1-1 1-2 0-3-1 0-1 1-1 1-1 0 0 1-1 1-2 0 0-1 0-1 0 0 0 0 0-1-2 0-1 0-1-1-1 0-1-1 0-1 0 0 0 0 1 0 1 0 1 0 1 1 1 1 1 0 2-1 3-1 2 0 0-1 2-1 0-3 2-4 2-3 4-8 6-10 9-1 1-1 2-2 2-1 1-1 1-2 1-1 0-4-2-7-4-3-1-5 2-7 1-3-1-1-4-3-6-3-1-6-2-9-4 0 0 0 0 0 0-1-2-2-2-2-3 0 0 0 0 0-1 0-1 0-2-1-3 0 0 0-1 0-2-1 0-2 0-3 0-1 0-1-2-2-3-2 0-4 1-5 1-4-1-4-1-4-2-1 0-1 0-1 0-2 0-2 2-3 3-1 2-1 1-1 1-1 0-2-1-2-1-1 1-1 1-2 1 0 0 0 1 0 1-1 1 0 3 0 3 0 1 0 1 0 2 1 1 0 1 0 1 0 0 0 0 0 0-1 0 1 3 2 4 0 0 0 1 0 1 2 4 2 6 2 8-1 0 0 1 1 1 0 0 0 0 1 0 1 1 2 2 3 1 2-1 5-2 10-2 1 0 2 0 3-1 1 0 2 1 3 1 1 2 0 3 1 4 0 1 0 2 1 2 0 0 0 0 0 1 0 0 0 2-1 2-2 0-1 3-2 4-2 1-1 1-5 1 0 0 1 2 3 3 0 0 0 0 0 0 1-1 2-1 3-1 1 0 1 0 1 1 1 0 1 0 1 1 0 0 0 1 0 1 1-1 2-1 4-1 0 0 0 0 0 1 0 0 1 0 1 0 1 1 2 2 3 2 1 1 2 2 3 3 1 1 2 1 4 3 1 0 1 1 2 1 1 0 1 0 1 1 0 0 0 0 0 0 0 0 1 1 1 1 1 0 2 0 2 0 1 0 1 0 2 0 1 0 3 0 2 3 0 3 1 6 3 8 1 0 1-1 1-2 0-1 0-1 0-2-5-5 1-4 1-6 0 0 0 0 0 0 0 0 0 0 1 0 0 0 4 2 4 1 1 0 0 0 1-1 1-1 2-1 3 0 2 1 5 1 8 1 1 0 4 3 4 5-1 1-1 2-1 3 1 1 0 1 1 1 1 1 1 1 1 0 1 0 2 0 2 0 1 1 1 1 1 2 0 0 0 0 0 1-1 0-1 1-1 2 0 1 1 2 2 2 3 0 3-1 6 1 0 0 0 0 0 0 0 1 0 1-1 1-2 0-4 0-6-1l-3 0c0-1-1-1-1-1-2 1-3 2-3 4-1 2-1 4 0 6 1 1 1 2 2 3 0 1 0 1 0 2 0 1-2 1-3 1-3 0-1-3-2-5-1 0-3-1-3-2-1-3-1-5-1-6 1-2 0-4-1-6 0-2 1-4 0-6-1-2-3 0-4-3 0-1-3 1-3 1 0 2-1 3-2 5 0 1-1 2-3 3-3 1-4-3-7-2-3 1-4 3-4 6-1 2 1 5 3 6 9 4 10 6 11 8 0 1 0 1 1 1 0 1 0 1 1 2 0 1 1 2 2 3 1 1 2 2 2 2 0 0 4 4 8 6 3 1 4 0 5 0 0 0 1 0 2 0 0-1 0-1 0-2 1 0 3 0 5-1 3-1 6-1 9-2 1 0 2-1 2-2-1-1-2-2-3-2-1 0-1-1-2-1 0-1 0-2 1-3 1 0 2-1 3-1 2-1 4-1 3 0 0 0-1 0-1 0-3 0-2 2-1 2 2-1 5-1 2 1 0 0 0 1 0 1 1 1 1 1 1 2 1 1 1 0 2 0 0 0 1 0 1 0 0 0 1 0 0 1 0 0 1 1 1 0 1 0 1 0 1 1 1 0 1 0 1 1-1 0 0 3 2 3 0 0 0 0 1 0 0 1 0 1 1 1 0 0 1 1 2 1 1 1 1 1 2 1 1 0 1 1 0 1 0 0-2 1-2 2 0 0 2 0 2 1 0 1-1 2-1 2-19 7-39 12-60 13-4-2-8-5-11-8-13-10-33-15-33-14-1 0-2 1-2 1 0-1-1-1-2-1 0 1 0 1 0 1-1 1-2-1-5-2 0 0 0 0 0 0-2-1-3-1-4-1-1 0-2-1-2-1 0 0 0 0 0 0-1 0 1 1 1 1 0 0 0 1-1 0-1 0-1 0-1 0-2 0-4-1-5-2-1-1-1-1-1-1-1 1-1 0-1 0 0-1-4-3-4-2 0 0 0 0 0 0-1 0-2-1-2-1-1-2-3-2-3-3-1-1-3-1-3-1 0-1 0-1-1-1 0 0-1 1 0 1 0 0 1 1 1 1 0 0-1 0-1 0 0 2 1 3 1 3 0 0-2 0-2 1 0 0 0 0 0 0 1 2 1 2 2 3 0 0 0 1 0 1 1 1 3 4 6 5 1 0 1 0 1 0-1 0-2 0-1 1 1 1 2 2 4 3 0 1 1 1 2 2 1 0 3 1 6 1 2 1 7 4 7 4 0 1 0 1 0 1 0 0 0 1 0 1 1 0 2 0 2 0 0 0 0 0 1 1 0 0-1 0-1 0-1-1-2-1-2-1 0 0 0 0 0 0 0 1 0 1 0 1 1 1 3 1 5 2 0 0 0 1-1 1-7-1-14-3-20-5 0 0-1-1-2-1 0 0 0 0 0 0 0 0 0 0 0-1 0 0 0 0-1 0 0 0 1 0 1 0 0-1 0-1 0-1 0 0-1-1-1-1-1 1-1 1-1 1-1-1-1-1-1-1-2 0-4-1-4-1 1 0 1 1 1 1 1 1 1 1 2 1 0 0 0 1-2 0-1 0-2-1-3-2-1-1-2-2-3-3 0 1 0 1 0 1 0 0-1-1-2-1-1 0 1 1 1 2 0 0 0 0 0 0-1 0-2-1-3-2-1-1-1-1-2-1 0 1 0 1-1 1-2-2-5-3-8-4 0 0 0 0-1-1 0 0 0 0 0 0 0-1 0-1-1-2 0 0 0 0 0 0 1 0 1 0 2 0 0 0 1 0 1-1 1 0 1-1 0-1 0 0-1-1-1-1 0-1-1-2-2-3 0 0-1 0-1-1-6-5-6-12-9-14-3-2-4-1-8-2 0 0-1 0-1 0-1 0-1 1-2 1 0 2-2 3-4 2-1 0-1 0-2 0 0 0-4-1-4-2 0 0 7 2 6-1-1 0-1-1-1-1 0 0 0 0-1-1-1 0-1 0-2 1 0 0 0-1 0-1 0-1 1-1 0-1 0-1-1-1-1-1-1-1-1-2-1-2-1-1 0-1-1-2-1-1-4 0-5 0 0 0-2-1-3-1-1 0-3-1-4-2-2-2-2-3-4-2-1 0-1 0-1 0-24-25-41-56-48-91-1-2-1-5-2-10 0 0 0 0 0 0 0-1 0-1 1-1 1 0 3-1 3-3 0 0 0 0 1-1 0 0 1 0 1 1 0 0 2-1 2-3 0-1 0-2 0-2 1-1 0-3 0-3 0 0-1-1 0-1 0-3 4-16 5-17 0 0 1 0 1 0 7-9 16-22 15-27-1-3-1-3 0-4 3-4 3-4 2-7 1 1 2 1 3 1 1 0 2 0 2-1 1-1 1-1 2-2 1-1 2-3 2-5 0 0 2 0 5-3 4-3 19-20 20-24 0-2-1-4-2-6-1-2-5-6-6-8 0-2-2-2-2-3 0-1 1-3 2-6 0-1 1-10 1-13-1-2-1-3 0-5 0-1-2-2-3-2-1 1-3 1-3 1-2-3-9-4-7-8 0-1 1-2 1-3 0-1 1-2 1-3 0-1 2-5 3-7 35-37 85-60 140-60 106 0 193 87 193 193z m-221 123c0 0 1 1 2 1 1 0 2 0 2 0 1 1 1 2 2 2 0 0-1 1 0 1 0 0 0 1 0 1 0 1 1 1 1 1 1 0 1 0 1 1 1 0-2 3-3 3-1-1-2-3-3-3 0 0-1 0-1 0 0 0 0 0-1-1 0 0 0 0 0-1-1 0-1-1 0-1 0 0 0 0-1-1 0-1-1-1-1-2-1 0 0-1 0-1-1-1 1 0 2 0z"/>
<glyph unicode="&#57363;" d="M225 402c-61-113-37-234-3-290l-185-29c-36 71-31 247 49 364z m272 0c-61-113-37-234-4-290l-185-29c-36 71-30 247 51 364z"/>
<glyph unicode="&#57364;" d="M37 391l438 0c11 0 20 9 20 20 0 12-9 21-20 21l-438 0c-11 0-20-9-20-21 0-11 9-20 20-20z m0-154l438 0c11 0 20 9 20 21 0 11-9 20-20 20l-438 0c-11 0-20-9-20-20 0-12 9-21 20-21z m0-154l438 0c11 0 20 9 20 21 0 11-9 20-20 20l-438 0c-11 0-20-9-20-20 0-12 9-21 20-21z"/>
<glyph unicode="&#57365;" d="M483 438l-45 45-182-181-182 181-45-45 181-182-181-182 45-45 182 181 182-181 45 45-181 182z"/>
<glyph unicode="&#57366;" d="M338 294c-27 0-55 0-82 0-28 0-57 0-85 0-5-1-13-4-14-9-2-4-1-13 3-17 27-30 56-60 84-89 7-7 16-7 23 0 28 29 56 59 83 89 6 5 8 11 5 18-4 6-10 8-17 8z m-82 206c-134 0-244-110-244-244 0-134 109-244 244-244 135 0 244 109 244 244 0 135-110 244-244 244z m0-438c-107 0-194 87-194 194 0 107 87 194 194 194 107 0 194-87 194-194 0-107-87-194-194-194z"/>
<glyph unicode="&#57367;" d="M138 498l249-242-249-242-13 13 236 229-236 229z"/>
<glyph unicode="&#57368;" d="M374 10l-249 242 249 242 13-13-235-229 235-228z"/>
<glyph unicode="&#57369;" d="M341 172c0 2 0 3-1 5-3 17-8 45-30 60 2 10 2 25 2 48 0 36-25 65-56 65-21 0-34-14-34-14-13-12-22-30-22-51 0-23 1-38 2-48-21-15-27-43-30-60 0-2 0-3-1-5-1-8 5-16 13-17 1 0 2 0 3 0l138 0c1 0 2 0 3 0 9 2 15 9 13 17z m-85 34l-29 14 15 23c4-2 10-3 14-3 5 0 10 1 14 3l16-23z m0 44c-28 0-40 35-38 46 31 26 59 24 59 24 0 0 5-15 17-32-2-17-20-38-38-38z m0 247c-135 0-244-109-244-244 0-135 109-245 244-245 135 0 245 110 245 245 0 135-110 244-245 244z m0-457c-117 0-213 95-213 213 1 117 96 213 213 213 118 0 213-95 213-213 0-118-95-213-213-213z"/>
<glyph unicode="&#57370;" d="M478 315l-163 0 0 163c0 9-6 15-14 15l-90 0c-8 0-14-6-14-15l0-163-163 0c-9 0-15-6-15-14l0-89c0-8 6-15 15-15l163 0 0-163c0-8 6-15 14-15l89 0c8 0 15 7 15 15l0 163 163 0c8 0 15 7 15 15l0 89c0 8-6 14-15 14z"/>
<glyph unicode="&#57371;" d="M478 315l-444 0c-9 0-15-6-15-14l0-89c0-8 6-15 15-15l444 0c8 0 15 7 15 15l0 89c0 8-6 14-15 14z"/>
<glyph unicode="&#57372;" d="M479 266l-217 217c-9 9-21 14-34 14l-169 0c-26 0-48-21-48-48l0-168c0-14 5-26 14-35l217-217c9-8 21-14 34-14 13 0 25 6 34 14l169 169c9 9 14 21 14 34 0 14-6 26-14 34z m-384 111c-19 0-36 16-36 36 0 20 17 36 36 36 20 0 37-16 37-36 0-20-17-36-37-36z"/>
<glyph unicode="&#57373;" d="M256 499c-134 0-243-109-243-243 0-134 109-243 243-243 134 0 243 109 243 243 0 134-109 243-243 243z m-101-159l202 0c5 0 9-2 12-4l-113-97-113 97c3 2 8 4 12 4z m-17-15l81-70-81-69z m219-153l-202 0c-4 0-9 2-11 4l83 72 29-26 29 26 84-72c-3-2-8-4-12-4z m17 14l-81 69 81 71z"/>
<glyph unicode="&#57374;" d="M377 398c19 0 34 15 34 34l0 36c0 19-15 34-34 34-19 0-34-15-34-34l0-36c0-19 15-34 34-34z m121 45l-69 0 0-17c0-29-23-52-52-52-28 0-52 23-52 52l0 17-138 0 0-17c0-29-24-52-52-52-29 0-52 23-52 52l0 17-70 1 0-434 486 0z m-34-399l-416 0 0 278 416 0z m-330 354c19 0 34 15 34 34l0 36c0 19-15 34-34 34-19 0-34-15-34-34l0-36c0-19 15-34 34-34z m53-114l54 0 0-48-54 0z m88 0l55 0 0-48-55 0z m82 0l55 0 0-48-55 0z m-170-79l54 0 0-49-54 0z m88 0l55 0 0-49-55 0z m82 0l55 0 0-49-55 0z m-170-82l54 0 0-48-54 0z m-87 82l55 0 0-49-55 0z m0-82l55 0 0-48-55 0z m175 0l55 0 0-48-55 0z m82 0l55 0 0-48-55 0z"/>
<glyph unicode="&#57375;" d="M257 502c-136 0-247-111-247-248 0-136 111-247 247-247 136 0 247 111 247 247 0 137-111 248-247 248z m0-442c-107 0-195 87-195 194 0 108 88 195 195 195 107 0 195-87 195-195 0-107-88-194-195-194z m129 202l-111 0 0 134c0 11-9 20-21 20-11 0-20-9-20-20l0-154c0-11 9-21 20-21l132 0c11 0 21 10 21 21-1 11-10 20-21 20z"/>
</font>
</defs>
</svg>
